<?xml version="1.0" encoding="utf-8"?>
<!-- Generator: Adobe Illustrator 16.0.4, SVG Export Plug-In . SVG Version: 6.00 Build 0)  -->
<!DOCTYPE svg PUBLIC "-//W3C//DTD SVG 1.1//EN" "http://www.w3.org/Graphics/SVG/1.1/DTD/svg11.dtd">
<svg version="1.1" id="Layer_1" xmlns="http://www.w3.org/2000/svg" xmlns:xlink="http://www.w3.org/1999/xlink" x="0px" y="0px"
	 width="56.689px" height="56.689px" viewBox="0 0 56.689 56.689" enable-background="new 0 0 56.689 56.689" xml:space="preserve">
<polygon points="49.3,49.61 45.8,49.61 45.8,48.61 48.3,48.61 48.3,46.11 49.3,46.11 "/>
<path d="M40.725,49.61H35.65v-1h5.075V49.61z M30.573,49.61h-5.076v-1h5.076V49.61z M20.423,49.61h-5.076v-1h5.076V49.61z"/>
<polygon points="10.271,49.61 6.771,49.61 6.771,46.11 7.771,46.11 7.771,48.61 10.271,48.61 "/>
<path d="M7.771,41.034h-1v-5.075h1V41.034z M7.771,30.883h-1v-5.076h1V30.883z M7.771,20.732h-1v-5.076h1V20.732z"/>
<polygon points="7.771,10.58 6.771,10.58 6.771,7.08 10.271,7.08 10.271,8.08 7.771,8.08 "/>
<path d="M40.725,8.08h-5.076v-1h5.076V8.08z M30.573,8.08h-5.076v-1h5.076V8.08z M20.422,8.08h-5.076v-1h5.076V8.08z"/>
<polygon points="49.3,10.58 48.3,10.58 48.3,8.08 45.8,8.08 45.8,7.08 49.3,7.08 "/>
<path d="M49.3,41.034h-1v-5.076h1V41.034z M49.3,30.883h-1v-5.076h1V30.883z M49.3,20.732h-1v-5.076h1V20.732z"/>
</svg>
