<?xml version="1.0" encoding="utf-8"?>
<!-- Generator: Adobe Illustrator 16.0.4, SVG Export Plug-In . SVG Version: 6.00 Build 0)  -->
<!DOCTYPE svg PUBLIC "-//W3C//DTD SVG 1.1//EN" "http://www.w3.org/Graphics/SVG/1.1/DTD/svg11.dtd">
<svg version="1.1" id="Layer_1" xmlns="http://www.w3.org/2000/svg" xmlns:xlink="http://www.w3.org/1999/xlink" x="0px" y="0px"
	 width="56.69px" height="56.69px" viewBox="0 0 56.69 56.69" enable-background="new 0 0 56.69 56.69" xml:space="preserve">
<g>
	<path d="M25.407-44.143l-1.688,5.107h-2.17l5.519-16.239h2.529l5.543,16.239H32.9l-1.734-5.107H25.407z M30.732-45.782
		l-1.592-4.673c-0.361-1.06-0.602-2.025-0.843-2.965H28.25c-0.241,0.965-0.506,1.952-0.82,2.941l-1.589,4.697H30.732z"/>
</g>
<g>
	<path d="M97.484-39.412l-4.338,13.127h-5.577l14.187-41.739h6.499l14.247,41.739h-5.758l-4.458-13.127H97.484z M111.172-43.627
		l-4.092-12.012c-0.926-2.723-1.549-5.205-2.166-7.621h-0.123c-0.62,2.481-1.303,5.018-2.106,7.559l-4.086,12.073H111.172z"/>
</g>
<rect x="13.249" y="28.346" opacity="0.5" width="15.096" height="15.096"/>
<rect x="28.345" y="13.25" opacity="0.5" width="15.097" height="15.096"/>
<rect x="28.345" y="28.346" width="15.096" height="15.096"/>
<rect x="13.249" y="13.249" width="15.096" height="15.097"/>
<rect x="84.271" y="34.015" opacity="0.5" width="15.096" height="15.096"/>
<rect x="110.704" y="7.581" opacity="0.5" width="15.097" height="15.096"/>
<rect x="110.704" y="34.015" width="15.096" height="15.096"/>
<rect x="84.271" y="7.58" width="15.096" height="15.097"/>
</svg>
