<?xml version="1.0" encoding="utf-8"?>
<!-- Generator: Adobe Illustrator 16.0.4, SVG Export Plug-In . SVG Version: 6.00 Build 0)  -->
<!DOCTYPE svg PUBLIC "-//W3C//DTD SVG 1.1//EN" "http://www.w3.org/Graphics/SVG/1.1/DTD/svg11.dtd">
<svg version="1.1" id="Layer_1" xmlns="http://www.w3.org/2000/svg" xmlns:xlink="http://www.w3.org/1999/xlink" x="0px" y="0px"
	 width="56.69px" height="56.69px" viewBox="0 0 56.69 56.69" enable-background="new 0 0 56.69 56.69" xml:space="preserve">
<path fill="#010202" d="M11.353,46.94H7.725V29.583h3.628V46.94z M18.751,42.871h-3.628v5.546h3.628V42.871z M26.15,26.671h-3.628
	v19.946h3.628V26.671z M33.55,19.562h-3.629v11.066h3.629V19.562z M40.948,39.347h-3.629v8.679h3.629V39.347z M48.347,29.583h-3.629
	V46.94h3.629V29.583z M11.353,9.4H7.725v14.558h3.628V9.4z M18.751,10.873h-3.628v26.346h3.628V10.873z M26.15,9.123h-3.628v12.345
	h3.628V9.123z M33.55,8.49h-3.629v7.279h3.629V8.49z M40.948,9.4h-3.629v14.558h3.629V9.4z M48.347,9.4h-3.629v14.558h3.629V9.4z
	 M40.948,28.39h-3.629v7.812h3.629V28.39z M33.55,35.191h-3.629v12.372h3.629V35.191z"/>
</svg>
